<svg width="32" height="32" viewBox="0 0 32 32" fill="none" xmlns="http://www.w3.org/2000/svg">
<path fill-rule="evenodd" clip-rule="evenodd" d="M22.1667 6.30209H18.0758H13.5909H9.5C5.02165 6.30209 2.78249 6.30209 1.39124 7.69334C0 9.08458 0 11.3237 0 15.8021V22.1354C0 26.6137 0 28.8529 1.39124 30.2442C2.78249 31.6354 5.02165 31.6354 9.5 31.6354H22.1667V6.30209Z" fill="#1C274C"/>
<path opacity="0.5" d="M31.6666 15.8018V22.1351C31.6666 26.6134 31.6666 28.8526 30.2754 30.2438C28.9686 31.5506 26.9139 31.63 22.9583 31.6348H22.1666V6.30209H22.9583C26.9139 6.30692 28.9686 6.3863 30.2754 7.69302C31.6666 9.08426 31.6666 11.3234 31.6666 15.8018Z" fill="#1C274C"/>
<path opacity="0.5" d="M18.0758 6.30227L21.485 2.32494C21.9117 1.82698 21.8541 1.07732 21.3561 0.650497C20.8582 0.223678 20.1085 0.281359 19.6818 0.779301L15.8333 5.26908L11.985 0.779301C11.5581 0.281359 10.8085 0.223694 10.3105 0.650497C9.81258 1.07732 9.7549 1.82698 10.1817 2.32494L13.5908 6.30227H18.0758Z" fill="#1C274C"/>
<path d="M26.9166 14.2188C27.7911 14.2188 28.5 14.9276 28.5 15.8021C28.5 16.6766 27.7911 17.3854 26.9166 17.3854C26.0422 17.3854 25.3333 16.6766 25.3333 15.8021C25.3333 14.9276 26.0422 14.2188 26.9166 14.2188Z" fill="#1C274C"/>
<path d="M26.9166 20.5521C27.7911 20.5521 28.5 21.261 28.5 22.1354C28.5 23.0099 27.7911 23.7188 26.9166 23.7188C26.0422 23.7188 25.3333 23.0099 25.3333 22.1354C25.3333 21.261 26.0422 20.5521 26.9166 20.5521Z" fill="#1C274C"/>
</svg>
